<?xml version="1.0" encoding="utf-8" ?><svg xmlns="http://www.w3.org/2000/svg" xmlns:xlink="http://www.w3.org/1999/xlink" width="300" height="300" viewBox="0 0 300 300"><path d="M101.553 46.0209C108.188 46.8137 115.979 46.1086 122.741 46.0588L149.037 46.0525C155.495 46.0608 162.11 45.8744 168.541 46.5099C191.039 48.6129 212.117 58.4373 228.195 74.3152C246.165 92.2309 256.346 116.511 256.527 141.886C256.675 169.06 247.769 193.75 228.473 213.182C223.991 217.696 218.955 221.594 213.662 225.105C194.835 237.594 175.926 241.202 153.688 241.278L146.792 241.29C146.257 226.599 144.74 215.237 140.426 201.221C138.779 195.871 136.503 190.637 135.133 185.215C138.783 186.766 143.066 187.226 146.985 187.502C146.918 191.822 146.935 196.144 147.034 200.463C148.786 200.502 150.538 200.513 152.29 200.497C166.945 200.23 181.277 195.631 191.607 184.883C202.703 173.338 207.806 158.137 207.483 142.25C207.168 126.677 201.601 111.806 190.236 100.95C178.256 89.5062 163.048 86.4615 146.973 86.7966C147.059 88.9244 147.019 91.0555 146.854 93.1786C136.468 93.7502 130.883 96.3039 122.235 101.944C122.531 93.7534 122.74 85.6 118.974 78.0682C115.267 70.6548 109.115 66.9511 101.491 64.4082C101.451 58.2913 101.315 52.1334 101.553 46.0209Z"/><path fill="#39813D" d="M93.4027 71.3588C94.9573 71.3307 96.5103 71.4072 98.0416 71.6895C103.146 72.6307 108.035 75.5792 110.985 79.8666C118.614 90.9561 112.619 109.863 108.718 121.341C107.083 126.151 105.044 130.732 104.15 135.759C107.813 132.479 110.214 128.138 112.941 124.108C119.077 115.042 127.612 105.464 138.417 102.145C143.333 100.635 149.292 100.796 153.859 103.278C159.188 106.173 163.037 111.648 164.685 117.41C166.99 125.469 163.877 131.538 160.104 138.327C163.011 141.445 166.089 144.718 167.583 148.788C169.673 154.485 169.2 160.755 166.661 166.219C164.142 171.641 159.843 176.03 154.144 178.05C144.742 181.382 134.886 177.382 126.947 172.329C123.525 170.151 120.406 167.657 116.728 165.885C119.304 171.757 122.623 177.251 125.284 183.09C133.964 202.142 137.985 220.426 138.836 241.251L129.534 241.17C129.626 230.753 127.752 219.989 125.083 209.939C121.007 195.64 113.245 176.438 104.352 164.619C104.381 164.981 104.402 165.343 104.418 165.706C104.547 169.406 104.499 173.151 104.488 176.855C104.458 187.105 104.12 198.318 96.7624 206.297C92.8916 210.494 88.0691 212.544 82.4241 212.767C75.6386 213.036 69.375 211.153 64.3535 206.46C60.2568 202.632 57.699 196.711 57.5093 191.108C51.0588 190.768 45.536 189.811 40.4488 185.507C35.7054 181.494 32.8158 176.169 32.3334 169.94C31.9157 164.547 33.4422 159.448 37.0257 155.326C39.4982 152.481 42.7959 150.408 46.2139 148.884C59.6735 142.884 73.6117 145.786 87.7008 144.842C83.5795 142.125 78.8094 141.465 74.137 140.167C62.7525 137.003 47.6104 131.63 40.5037 121.75C37.5019 117.578 36.1555 112.747 37.0306 107.624C38.1265 101.208 42.4622 95.4804 47.7201 91.7984C54.2136 87.2512 61.8567 86.8151 69.4704 88.1579C70.4859 85.0969 71.9471 82.4449 74.0821 80.0183C79.0646 74.3553 86.02 71.8429 93.4027 71.3588Z"/><path d="M111.21 194.653L111.57 194.917C112.639 196.967 113.219 199.246 114.003 201.417C118.634 214.241 121.365 227.631 121.541 241.288C118.555 241.215 115.551 241.269 112.562 241.265L101.54 241.228C101.453 236.642 100.776 215.541 102.076 212.477C102.799 210.774 104.651 209.412 105.666 207.825C108.257 203.771 109.714 199.185 111.21 194.653Z"/></svg>