<svg xmlns="http://www.w3.org/2000/svg" width="225" height="196" viewBox="0 0 225 196">
  <g fill="#FFF" transform="translate(.266 .015)">
    <path d="M69.2867661,0.00548067754 C78.9180995,-0.00845265579 85.9807661,0.00418067754 90.4747661,0.0433806775 L116.770766,0.0370806775 C123.228766,0.0453806775 129.843766,-0.141019322 136.274766,0.494480678 C158.772766,2.59748068 179.850766,12.4218807 195.928766,28.2997807 C213.898766,46.2154807 224.079766,70.4955807 224.260766,95.8705807 C224.408766,123.044581 215.502766,147.734581 196.206766,167.166581 C191.724766,171.680581 186.688766,175.578581 181.395766,179.089581 C162.568766,191.578581 143.659766,195.186581 121.421766,195.262581 L114.525766,195.274581 C113.990766,180.583581 112.473766,169.221581 108.159766,155.205581 C106.512766,149.855581 104.236766,144.621581 102.866766,139.199581 C106.516766,140.750581 110.799766,141.210581 114.718766,141.486581 C114.651766,145.806581 114.668766,150.128581 114.767766,154.447581 C116.519766,154.486581 118.271766,154.497581 120.023766,154.481581 C134.678766,154.214581 149.010766,149.615581 159.340766,138.867581 C170.436766,127.322581 175.539766,112.121581 175.216766,96.2345807 C174.901766,80.6615807 169.334766,65.7905807 157.969766,54.9345807 C145.989766,43.4907807 130.781766,40.4460807 114.706766,40.7811807 C114.792766,42.9089807 114.752766,45.0400807 114.587766,47.1631807 C104.201766,47.7347807 98.6167661,50.2884807 89.9687661,55.9285807 C90.2647661,47.7379807 90.4737661,39.5845807 86.7077661,32.0527807 C83.0007661,24.6393807 76.8487661,20.9356807 69.2247661,18.3927807 L69.2867661,0.00548067754 Z"/>
    <path d="M61.1364661,25.3433807 C62.6910661,25.3152807 64.2440661,25.3917807 65.7753661,25.6740807 C70.8797661,26.6152807 75.7687661,29.5637807 78.7187661,33.8511807 C86.3477661,44.9406807 80.3527661,63.8475807 76.4517661,75.3255807 C74.8167661,80.1355807 72.7777661,84.7165807 71.8837661,89.7435807 C75.5467661,86.4635807 77.9477661,82.1225807 80.6747661,78.0925807 C86.8107661,69.0265807 95.3457661,59.4485807 106.150766,56.1295807 C111.066766,54.6195807 117.025766,54.7805807 121.592766,57.2625807 C126.921766,60.1575807 130.770766,65.6325807 132.418766,71.3945807 C134.723766,79.4535807 131.610766,85.5225807 127.837766,92.3115807 C130.744766,95.4295807 133.822766,98.7025807 135.316766,102.772581 C137.406766,108.469581 136.933766,114.739581 134.394766,120.203581 C131.875766,125.625581 127.576766,130.014581 121.877766,132.034581 C112.475766,135.366581 102.619766,131.366581 94.6807661,126.313581 C91.2587661,124.135581 88.1397661,121.641581 84.4617661,119.869581 C87.0377661,125.741581 90.3567661,131.235581 93.0177661,137.074581 C101.697766,156.126581 105.718766,174.410581 106.569766,195.235581 L97.2677661,195.154581 C97.3597661,184.737581 95.4857661,173.973581 92.8167661,163.923581 C88.7407661,149.624581 80.9787661,130.422581 72.0857661,118.603581 C72.1147661,118.965581 72.1357661,119.327581 72.1517661,119.690581 C72.2807661,123.390581 72.2327661,127.135581 72.2217661,130.839581 C72.1917661,141.089581 71.8537661,152.302581 64.4961661,160.281581 C60.6253661,164.478581 55.8028661,166.528581 50.1578661,166.751581 C43.3723661,167.020581 37.1087661,165.137581 32.0872661,160.444581 C27.9905661,156.616581 25.4327661,150.695581 25.2430661,145.092581 C18.7925661,144.752581 13.2697661,143.795581 8.18256612,139.491581 C3.43916612,135.478581 0.549566125,130.153581 0.0671661246,123.924581 C-0.350533875,118.531581 1.17596612,113.432581 4.75946612,109.310581 C7.23196612,106.465581 10.5296661,104.392581 13.9476661,102.868581 C27.4072661,96.8685807 41.3454661,99.7705807 55.4345661,98.8265807 C51.3132661,96.1095807 46.5431661,95.4495807 41.8707661,94.1515807 C30.4862661,90.9875807 15.3441661,85.6145807 8.23746612,75.7345807 C5.23566612,71.5625807 3.88926612,66.7315807 4.76436612,61.6085807 C5.86026612,55.1925807 10.1959661,49.4649807 15.4538661,45.7829807 C21.9473661,41.2357807 29.5904661,40.7996807 37.2041661,42.1424807 C38.2196661,39.0814807 39.6808661,36.4294807 41.8158661,34.0028807 C46.7983661,28.3398807 53.7537661,25.8274807 61.1364661,25.3433807 Z"/>
    <path d="M78.9437661,148.637581 L79.3037661,148.901581 C80.3727661,150.951581 80.9527661,153.230581 81.7367661,155.401581 C86.3677661,168.225581 89.0987661,181.615581 89.2747661,195.272581 C86.2887661,195.199581 83.2847661,195.253581 80.2957661,195.249581 L69.2737661,195.212581 C69.1867661,190.626581 68.5097661,169.525581 69.8097661,166.461581 C70.5327661,164.758581 72.3847661,163.396581 73.3997661,161.809581 C75.9907661,157.755581 77.4477661,153.169581 78.9437661,148.637581 Z"/>
  </g>
</svg>
